<svg width="788" height="486" viewBox="0 0 788 486" fill="none" xmlns="http://www.w3.org/2000/svg">
<path d="M151.49 226C151.577 217.713 152.63 208.35 154.65 197.91C160.277 168.79 170.574 142.037 185.54 117.65C233.72 39.13 320.71 -5.54998 412.67 1.59002C477.11 6.59001 536.43 36.32 578.64 85.37C608.22 119.743 626.84 159.813 634.5 205.58C635.43 211.16 635.74 216.59 636.98 222.18C637.06 222.54 637.144 222.54 637.23 222.18C637.59 220.63 636.97 219.39 636.97 217.85C636.85 164.157 636.83 108.987 636.91 52.34C636.91 51.79 636.57 50.93 636.65 50.46C636.664 50.3724 636.703 50.2907 636.762 50.2246C636.822 50.1586 636.899 50.1111 636.984 50.0879C637.07 50.0646 637.16 50.0666 637.245 50.0936C637.329 50.1206 637.404 50.1714 637.46 50.24C640.774 54.2267 643.87 58.2133 646.75 62.2C680.624 109.12 700.027 161.837 704.96 220.35C704.967 220.45 705.02 220.5 705.12 220.5C705.24 220.5 705.304 220.44 705.31 220.32C705.62 216.4 705.26 212.57 705.26 208.68C705.267 140.707 705.267 73.0067 705.26 5.58001C705.26 4.43335 705.61 4.31335 706.31 5.22001C719.917 22.7667 731.86 41.2367 742.14 60.63C770.007 113.177 785.064 168.9 787.31 227.8C790.024 298.993 774.574 365.863 740.96 428.41C731.207 446.557 719.67 464.25 706.35 481.49C705.61 482.45 705.24 482.327 705.24 481.12L705.3 267C705.3 266.807 705.227 266.777 705.08 266.91C704.967 267.003 704.904 267.123 704.89 267.27C703.244 286.383 699.984 305.053 695.11 323.28C684.11 364.447 665.084 402.007 638.03 435.96C637.264 436.92 636.88 436.787 636.88 435.56C636.84 380.24 636.867 324.91 636.96 269.57C636.96 268 637.63 266.55 637.32 265.01C637.3 264.91 637.237 264.863 637.13 264.87H637.12C636.994 264.877 636.93 264.947 636.93 265.08C636.99 266.58 636.27 267.75 636.09 269.26C631.23 311.247 616.904 349.123 593.11 382.89C557.66 433.19 505.02 467.54 444.71 480.75C438.397 482.13 431.847 483.233 425.06 484.06C380.787 489.433 338.53 483.613 298.29 466.6C226.19 436.12 170.96 370.44 155.5 292.81C154.434 287.47 153.484 282.127 152.65 276.78C151.89 271.907 151.527 266.54 151.56 260.68C151.567 260.56 151.507 260.497 151.38 260.49H151.37C151.284 260.49 151.237 260.537 151.23 260.63C151.1 266.07 150.74 271.4 150.74 276.87C150.72 327.65 150.73 379.13 150.77 431.31C150.77 433.057 150.697 434.747 150.55 436.38C150.517 436.827 150.357 436.873 150.07 436.52C116.757 394.953 95.537 347.803 86.4104 295.07C85.257 288.417 84.3237 280.953 83.6104 272.68C83.3104 269.21 82.1304 265.96 82.5504 262.47C82.5704 262.323 82.507 262.247 82.3604 262.24C82.2604 262.233 82.2104 262.277 82.2104 262.37C82.1037 264.17 82.1404 265.913 82.3204 267.6C82.5004 269.24 82.5871 270.903 82.5804 272.59C82.4471 340.343 82.4337 410.123 82.5404 481.93C82.5396 481.99 82.5209 482.048 82.4866 482.098C82.4523 482.147 82.4041 482.185 82.3481 482.206C82.2921 482.228 82.231 482.232 82.1726 482.218C82.1142 482.205 82.0611 482.174 82.0204 482.13C80.8204 480.783 79.6537 479.36 78.5204 477.86C54.0937 445.347 35.2537 410.307 22.0004 372.74C-7.88961 287.97 -7.22962 194.36 23.4104 110.16C36.6571 73.76 55.4104 39.5 79.6704 7.38001C80.5104 6.27335 81.3104 5.44335 82.0704 4.89002C82.3837 4.66335 82.5404 4.74335 82.5404 5.13001C82.4337 71.4033 82.4437 136.297 82.5704 199.81C82.5771 204.377 82.6171 209.273 82.6904 214.5C82.717 216.027 82.6171 217.61 82.3904 219.25C82.1304 221.097 82.0604 222.92 82.1804 224.72C82.1871 224.84 82.2504 224.893 82.3704 224.88H82.3804C82.5337 224.867 82.6004 224.783 82.5804 224.63C82.3471 222.877 82.4437 221.213 82.8704 219.64C82.9771 219.22 82.9704 218.803 82.8504 218.39C82.7371 217.997 82.7737 217.61 82.9604 217.23C83.2204 216.703 83.3771 216.123 83.4304 215.49C87.8104 163.94 105.61 114.52 134.26 71.76C138.514 65.4067 143.777 58.2167 150.05 50.19C150.284 49.8967 150.42 49.9367 150.46 50.31C150.654 51.9767 150.75 53.7267 150.75 55.56C150.737 106.74 150.737 159.24 150.75 213.06C150.75 217.16 150.97 221.473 151.41 226C151.457 226.493 151.484 226.493 151.49 226ZM513.46 273.82L513.33 288.22C513.33 288.256 513.338 288.291 513.351 288.324C513.365 288.357 513.385 288.387 513.411 288.411C513.436 288.436 513.466 288.454 513.499 288.466C513.531 288.478 513.566 288.483 513.6 288.48C514.12 288.447 514.55 288.23 514.89 287.83C527.31 273.42 530.59 254.91 528.74 236.25C528.713 235.971 528.582 235.713 528.374 235.524C528.165 235.336 527.893 235.231 527.61 235.23L449.42 235.21C449.127 235.21 448.98 235.353 448.98 235.64L449.02 257.53C449.023 257.74 449.108 257.941 449.258 258.089C449.408 258.237 449.61 258.32 449.82 258.32L489.13 258.31C489.904 258.31 490.214 258.69 490.06 259.45C487.667 271.457 480.484 278.977 468.51 282.01C454.24 285.62 439.03 283.09 428.68 271.96C420.16 262.79 417.99 249.89 418.96 237.12C420.19 221.1 429.78 207.29 445.3 203.42C462.09 199.22 480.26 204.73 487.47 221.54C487.545 221.707 487.667 221.848 487.819 221.948C487.972 222.047 488.149 222.1 488.33 222.1L525.33 222.12C525.438 222.121 525.545 222.097 525.643 222.051C525.741 222.005 525.827 221.937 525.896 221.853C525.965 221.769 526.015 221.67 526.041 221.564C526.068 221.458 526.071 221.348 526.05 221.24C524.357 212.42 520.684 204.703 515.03 198.09C513.63 196.463 513.057 196.717 513.31 198.85C513.417 199.737 513.454 200.573 513.42 201.36C513.254 205.493 513.34 209.687 513.68 213.94C513.683 213.987 513.673 214.035 513.653 214.078C513.632 214.12 513.6 214.157 513.562 214.183C513.523 214.21 513.479 214.225 513.433 214.228C513.387 214.231 513.341 214.221 513.3 214.2C513.007 214.053 512.804 213.83 512.69 213.53C505.12 193.9 487.33 180.73 466.99 177.86C446.83 175.01 428.06 179.41 412.56 193.29C406.327 198.877 401.204 205.983 397.19 214.61C396.75 215.543 396.53 215.493 396.53 214.46V200.62C396.53 199.027 396.064 198.873 395.13 200.16C387.957 210.047 383.58 219.85 382 229.57C378.6 250.48 382.93 268.94 395.92 285.76C395.959 285.811 396.01 285.85 396.069 285.876C396.128 285.901 396.192 285.91 396.255 285.903C396.319 285.896 396.379 285.873 396.431 285.835C396.482 285.798 396.524 285.748 396.55 285.69C396.617 285.543 396.65 285.39 396.65 285.23C396.61 280.163 396.534 275.34 396.42 270.76C396.387 269.38 396.664 269.313 397.25 270.56C407.63 292.56 426.96 306.64 451.41 308.02C463.17 308.687 473.917 306.877 483.65 302.59C497.16 296.64 506.02 286.83 512.68 273.63C513.207 272.583 513.467 272.647 513.46 273.82ZM359.17 238.04C359.73 236.04 360.04 236.077 360.1 238.15C360.214 241.883 360.267 245.72 360.26 249.66C360.254 251.52 360.847 251.74 362.04 250.32C367.867 243.367 371.154 235.463 371.9 226.61C372.94 214.24 370.02 201.91 361.77 192.94C360.737 191.82 360.22 192.02 360.22 193.54C360.234 197.493 360.21 201.193 360.15 204.64C360.104 207.447 359.7 207.5 358.94 204.8C358.58 203.527 358.08 202.293 357.44 201.1C349.14 185.73 332.27 179.19 314.96 179.02C299.527 178.86 280.964 178.823 259.27 178.91C259.095 178.91 258.927 178.98 258.804 179.103C258.68 179.227 258.61 179.395 258.61 179.57V305.25C258.61 305.566 258.735 305.868 258.956 306.091C259.177 306.315 259.477 306.44 259.79 306.44L285.31 306.4C286.01 306.4 286.36 306.05 286.36 305.35L286.35 265.23C286.35 265.076 286.411 264.929 286.52 264.82C286.629 264.711 286.777 264.65 286.93 264.65L310.81 264.59C311.188 264.59 311.559 264.693 311.883 264.889C312.207 265.085 312.473 265.365 312.65 265.7L333.97 305.88C334.057 306.043 334.188 306.179 334.348 306.274C334.509 306.369 334.692 306.42 334.88 306.42L374.64 306.4C374.789 306.401 374.935 306.362 375.064 306.288C375.192 306.213 375.299 306.105 375.371 305.975C375.444 305.845 375.48 305.698 375.476 305.55C375.473 305.401 375.429 305.256 375.35 305.13C370.197 296.73 365.48 288.58 361.2 280.68C360.774 279.88 360.507 279.93 360.4 280.83C359.86 285.6 360.27 290.59 360.08 294.91C360.027 296.21 359.714 296.277 359.14 295.11C358.247 293.283 357.3 291.523 356.3 289.83C350.354 279.703 344.584 269.8 338.99 260.12C338.737 259.68 338.844 259.363 339.31 259.17C347.6 255.68 356.56 247.33 359.17 238.04Z" fill="black"/>
<path d="M286.28 204.19C286.28 203.998 286.356 203.814 286.491 203.677C286.625 203.541 286.809 203.463 287 203.46L315.72 203.36C318.096 203.352 320.451 203.783 322.649 204.628C324.847 205.474 326.846 206.718 328.531 208.29C330.216 209.861 331.555 211.728 332.472 213.786C333.388 215.843 333.863 218.05 333.87 220.28L333.89 224.04C333.905 228.543 332.014 232.867 328.633 236.063C325.252 239.258 320.657 241.063 315.86 241.08L287.14 241.18C287.044 241.181 286.948 241.163 286.858 241.127C286.768 241.091 286.687 241.038 286.618 240.97C286.549 240.902 286.494 240.821 286.457 240.732C286.42 240.642 286.4 240.547 286.4 240.45L286.28 204.19Z" fill="black"/>
</svg>
