<svg width="225" height="57" viewBox="0 0 225 57" fill="none" xmlns="http://www.w3.org/2000/svg">
<mask id="mask0_17_19" style="mask-type:alpha" maskUnits="userSpaceOnUse" x="0" y="0" width="225" height="57">
<path d="M107.283 16.211V1.21739H110.574V16.211H107.283Z" fill="black"/>
<path d="M119.484 7.0977C118.717 7.0977 118.113 7.32417 117.675 7.77711C117.235 8.23003 117.016 8.85476 117.016 9.65131V16.211H113.796V4.49726H116.075L116.687 5.69205C117.094 5.23912 117.596 4.88771 118.191 4.63781C118.787 4.38792 119.445 4.26297 120.166 4.26297C121.64 4.26297 122.838 4.71591 123.763 5.62177C124.687 6.51202 125.15 7.6912 125.15 9.15933V16.211H121.929V9.65131C121.929 8.87039 121.701 8.25346 121.247 7.80053C120.808 7.33198 120.221 7.0977 119.484 7.0977Z" fill="black"/>
<path d="M139.43 0.0460205V16.211H137.149L136.537 15.0162C136.067 15.4848 135.527 15.844 134.916 16.0939C134.304 16.3282 133.646 16.4453 132.941 16.4453C131.311 16.4453 129.932 15.8674 128.804 14.7117C127.691 13.5559 127.134 12.1034 127.134 10.3541C127.134 8.60487 127.691 7.15237 128.804 5.99661C129.932 4.84086 131.311 4.26297 132.941 4.26297C133.583 4.26297 134.179 4.36449 134.728 4.56754C135.292 4.77057 135.786 5.06732 136.209 5.45777V0.0460205H139.43ZM133.411 13.5871C134.304 13.5871 135.034 13.2904 135.597 12.6969C136.162 12.1034 136.444 11.3225 136.444 10.3541C136.444 9.3858 136.162 8.60487 135.597 8.01137C135.034 7.40226 134.304 7.0977 133.411 7.0977C132.518 7.0977 131.79 7.40226 131.225 8.01137C130.661 8.60487 130.379 9.3858 130.379 10.3541C130.379 11.3225 130.661 12.1034 131.225 12.6969C131.79 13.2904 132.518 13.5871 133.411 13.5871Z" fill="black"/>
<path d="M147.705 16.4453C146.013 16.4453 144.664 16.0002 143.662 15.1099C142.659 14.2197 142.157 13.0093 142.157 11.4787V4.49726H145.378V11.1272C145.378 11.9082 145.582 12.5173 145.989 12.9546C146.396 13.3763 146.969 13.5871 147.705 13.5871C148.441 13.5871 149.013 13.3763 149.421 12.9546C149.829 12.5173 150.032 11.9082 150.032 11.1272V4.49726H153.253V11.4787C153.253 12.9624 152.743 14.165 151.725 15.0865C150.706 15.9923 149.366 16.4453 147.705 16.4453Z" fill="black"/>
<path d="M160.636 13.962C161.2 13.962 161.631 13.8761 161.929 13.7043C162.227 13.5169 162.376 13.2513 162.376 12.9077C162.376 12.5953 162.234 12.3611 161.953 12.2049C161.67 12.0331 161.192 11.9004 160.518 11.8066L159.367 11.6427C158.05 11.4396 157.055 11.0414 156.381 10.4478C155.723 9.83872 155.394 9.03438 155.394 8.03481C155.394 6.87905 155.825 5.96538 156.687 5.29379C157.548 4.60658 158.708 4.26297 160.166 4.26297C161.67 4.26297 162.9 4.6222 163.856 5.34064C164.813 6.04346 165.29 6.94933 165.29 8.05824H162.281C162.281 7.65216 162.093 7.33198 161.718 7.0977C161.341 6.84781 160.824 6.72286 160.166 6.72286C159.632 6.72286 159.225 6.81658 158.943 7.004C158.662 7.1758 158.52 7.42569 158.52 7.75367C158.52 8.06604 158.662 8.30813 158.943 8.47992C159.241 8.65173 159.711 8.79229 160.353 8.90163L161.506 9.06562C162.885 9.26866 163.904 9.65131 164.562 10.2136C165.22 10.7758 165.549 11.5411 165.549 12.5095C165.549 13.6964 165.095 14.6492 164.186 15.3676C163.292 16.086 162.109 16.4453 160.636 16.4453C159.069 16.4453 157.776 16.0549 156.757 15.2739C155.739 14.493 155.229 13.509 155.229 12.322H158.332C158.332 12.8062 158.544 13.2045 158.967 13.5169C159.39 13.8136 159.946 13.962 160.636 13.962Z" fill="black"/>
<path d="M167.589 11.8535V1.68595H170.81V4.49726H174.194V7.16798H170.81V11.5958C170.81 12.1893 170.943 12.6188 171.209 12.8843C171.491 13.1342 171.946 13.2591 172.573 13.2591H174.43V16.211H172.384C170.708 16.211 169.486 15.8674 168.717 15.1802C167.965 14.493 167.589 13.3841 167.589 11.8535Z" fill="black"/>
<path d="M182.935 7.26169C181.995 7.26169 181.251 7.51159 180.702 8.01137C180.17 8.49555 179.903 9.16713 179.903 10.0262V16.211H176.683V4.49726H178.893L179.691 6.09033C180.146 5.49683 180.686 5.04389 181.314 4.73153C181.956 4.41916 182.646 4.26297 183.382 4.26297C183.507 4.26297 183.641 4.27078 183.782 4.28641C183.923 4.30202 184.119 4.32545 184.37 4.35668V7.42569C184.182 7.37883 183.963 7.33979 183.712 7.30856C183.461 7.27732 183.202 7.26169 182.935 7.26169Z" fill="black"/>
<path d="M188.04 18.0618C188.682 18.0618 189.152 17.9368 189.45 17.687C189.763 17.4527 190.045 16.992 190.296 16.3047L190.319 16.211H189.333L184.842 4.49726H188.18L191.401 13.2123L194.527 4.49726H197.748L193.117 17.1481C192.678 18.4756 192.091 19.4284 191.354 20.0063C190.617 20.5998 189.559 20.8965 188.18 20.8965C187.898 20.8965 187.6 20.8731 187.287 20.8262C186.989 20.795 186.668 20.7404 186.323 20.6622V17.8275C186.668 17.9056 186.974 17.9602 187.24 17.9915C187.522 18.0384 187.789 18.0618 188.04 18.0618Z" fill="black"/>
<path d="M107.314 34.2V19.2064H118.15V22.1817H110.605V25.2038H117.445V28.062H110.605V31.2247H118.15V34.2H107.314Z" fill="black"/>
<path d="M122.923 34.2H119.327L123.981 28.1557L119.679 22.4862H123.511L126.049 25.8364L128.565 22.4862H132.161L127.812 28.1557L132.396 34.2H128.565L125.72 30.4516L122.923 34.2Z" fill="black"/>
<path d="M141.24 29.2802H144.531C144.327 30.842 143.669 32.0915 142.556 33.0286C141.459 33.9657 140.096 34.4343 138.466 34.4343C136.679 34.4343 135.207 33.872 134.047 32.7475C132.902 31.6074 132.33 30.1392 132.33 28.3431C132.33 26.5471 132.902 25.0867 134.047 23.9622C135.207 22.8221 136.679 22.252 138.466 22.252C140.096 22.252 141.459 22.7205 142.556 23.6576C143.669 24.5947 144.327 25.8442 144.531 27.406H141.24C141.068 26.6876 140.731 26.1254 140.229 25.7192C139.743 25.2976 139.156 25.0867 138.466 25.0867C137.619 25.0867 136.923 25.3913 136.374 26.0004C135.841 26.5939 135.575 27.3748 135.575 28.3431C135.575 29.3115 135.841 30.0923 136.374 30.6859C136.907 31.2794 137.604 31.5761 138.466 31.5761C139.156 31.5761 139.743 31.3731 140.229 30.967C140.731 30.5609 141.068 29.9986 141.24 29.2802Z" fill="black"/>
<path d="M154.546 30.2642H157.742C157.539 31.5137 156.92 32.5211 155.885 33.2863C154.867 34.0516 153.613 34.4343 152.124 34.4343C150.306 34.4343 148.817 33.872 147.657 32.7475C146.513 31.6074 145.941 30.1392 145.941 28.3431C145.941 26.5314 146.498 25.0633 147.611 23.9388C148.739 22.8142 150.197 22.252 151.983 22.252C153.739 22.252 155.149 22.8064 156.214 23.9153C157.295 25.0243 157.837 26.4845 157.837 28.2963C157.837 28.4056 157.828 28.5384 157.813 28.6945C157.813 28.8351 157.805 29.0147 157.79 29.2334H149.115C149.241 30.0455 149.562 30.6703 150.079 31.1076C150.611 31.5293 151.294 31.7401 152.124 31.7401C152.751 31.7401 153.276 31.6151 153.699 31.3653C154.122 31.0997 154.404 30.7327 154.546 30.2642ZM151.889 24.8759C151.153 24.8759 150.557 25.0633 150.103 25.4381C149.648 25.7974 149.334 26.3439 149.162 27.078H154.663C154.553 26.3908 154.248 25.852 153.746 25.4615C153.245 25.0711 152.625 24.8759 151.889 24.8759Z" fill="black"/>
<path d="M160.121 34.2V18.035H163.342V34.2H160.121Z" fill="black"/>
<path d="M166.386 34.2V18.035H169.606V34.2H166.386Z" fill="black"/>
<path d="M180.477 30.2642H183.675C183.472 31.5137 182.852 32.5211 181.818 33.2863C180.8 34.0516 179.546 34.4343 178.056 34.4343C176.239 34.4343 174.75 33.872 173.59 32.7475C172.446 31.6074 171.874 30.1392 171.874 28.3431C171.874 26.5314 172.43 25.0633 173.543 23.9388C174.672 22.8142 176.129 22.252 177.916 22.252C179.67 22.252 181.081 22.8064 182.147 23.9153C183.228 25.0243 183.769 26.4845 183.769 28.2963C183.769 28.4056 183.761 28.5384 183.745 28.6945C183.745 28.8351 183.738 29.0147 183.722 29.2334H175.048C175.174 30.0455 175.495 30.6703 176.011 31.1076C176.544 31.5293 177.226 31.7401 178.056 31.7401C178.684 31.7401 179.209 31.6151 179.632 31.3653C180.055 31.0997 180.337 30.7327 180.477 30.2642ZM177.821 24.8759C177.085 24.8759 176.49 25.0633 176.035 25.4381C175.581 25.7974 175.267 26.3439 175.095 27.078H180.595C180.486 26.3908 180.18 25.852 179.679 25.4615C179.177 25.0711 178.558 24.8759 177.821 24.8759Z" fill="black"/>
<path d="M191.742 25.0867C190.975 25.0867 190.372 25.3131 189.933 25.7661C189.494 26.2191 189.274 26.8438 189.274 27.6403V34.2H186.054V22.4862H188.334L188.945 23.681C189.353 23.2281 189.854 22.8767 190.449 22.6268C191.045 22.377 191.703 22.252 192.424 22.252C193.898 22.252 195.096 22.7049 196.021 23.6108C196.945 24.501 197.408 25.6802 197.408 27.1483V34.2H194.187V27.6403C194.187 26.8593 193.961 26.2425 193.505 25.7895C193.067 25.321 192.479 25.0867 191.742 25.0867Z" fill="black"/>
<path d="M208.302 29.2802H211.593C211.39 30.842 210.732 32.0915 209.618 33.0286C208.522 33.9657 207.158 34.4343 205.529 34.4343C203.741 34.4343 202.269 33.872 201.109 32.7475C199.965 31.6074 199.393 30.1392 199.393 28.3431C199.393 26.5471 199.965 25.0867 201.109 23.9622C202.269 22.8221 203.741 22.252 205.529 22.252C207.158 22.252 208.522 22.7205 209.618 23.6576C210.732 24.5947 211.39 25.8442 211.593 27.406H208.302C208.13 26.6876 207.793 26.1254 207.292 25.7192C206.806 25.2976 206.218 25.0867 205.529 25.0867C204.682 25.0867 203.985 25.3913 203.436 26.0004C202.903 26.5939 202.637 27.3748 202.637 28.3431C202.637 29.3115 202.903 30.0923 203.436 30.6859C203.969 31.2794 204.666 31.5761 205.529 31.5761C206.218 31.5761 206.806 31.3731 207.292 30.967C207.793 30.5609 208.13 29.9986 208.302 29.2802Z" fill="black"/>
<path d="M221.608 30.2642H224.805C224.601 31.5137 223.982 32.5211 222.947 33.2863C221.929 34.0516 220.675 34.4343 219.186 34.4343C217.368 34.4343 215.879 33.872 214.72 32.7475C213.576 31.6074 213.004 30.1392 213.004 28.3431C213.004 26.5314 213.56 25.0633 214.673 23.9388C215.802 22.8142 217.259 22.252 219.045 22.252C220.801 22.252 222.212 22.8064 223.277 23.9153C224.358 25.0243 224.899 26.4845 224.899 28.2963C224.899 28.4056 224.891 28.5384 224.875 28.6945C224.875 28.8351 224.868 29.0147 224.852 29.2334H216.177C216.303 30.0455 216.624 30.6703 217.142 31.1076C217.674 31.5293 218.356 31.7401 219.186 31.7401C219.814 31.7401 220.338 31.6151 220.761 31.3653C221.184 31.0997 221.467 30.7327 221.608 30.2642ZM218.951 24.8759C218.215 24.8759 217.619 25.0633 217.165 25.4381C216.71 25.7974 216.397 26.3439 216.225 27.078H221.726C221.616 26.3908 221.31 25.852 220.809 25.4615C220.307 25.0711 219.688 24.8759 218.951 24.8759Z" fill="black"/>
<path d="M112.838 49.6228C113.575 49.6228 114.162 49.4901 114.601 49.2246C115.04 48.9434 115.259 48.5608 115.259 48.0766C115.259 47.6237 115.071 47.2723 114.695 47.0224C114.334 46.7725 113.724 46.5773 112.861 46.4367L111.545 46.2493C109.947 45.9837 108.717 45.4606 107.854 44.6796C106.993 43.8831 106.561 42.8913 106.561 41.7043C106.561 40.2987 107.087 39.1742 108.136 38.3308C109.187 37.4874 110.582 37.0657 112.321 37.0657C114.092 37.0657 115.526 37.503 116.622 38.3776C117.736 39.2523 118.292 40.408 118.292 41.8449H114.931C114.931 41.2514 114.695 40.7907 114.225 40.4627C113.771 40.1191 113.143 39.9473 112.345 39.9473C111.608 39.9473 111.02 40.0878 110.582 40.369C110.143 40.6345 109.923 41.0094 109.923 41.4935C109.923 41.9308 110.119 42.2744 110.51 42.5243C110.918 42.7586 111.686 42.9616 112.815 43.1334L114.131 43.3443C115.62 43.5785 116.748 44.0705 117.516 44.8202C118.299 45.5699 118.692 46.546 118.692 47.7486C118.692 49.2167 118.159 50.3804 117.092 51.2393C116.043 52.0983 114.609 52.5279 112.791 52.5279C110.926 52.5279 109.406 52.0672 108.231 51.1456C107.056 50.2085 106.468 49.0216 106.468 47.5847H109.923C109.923 48.1782 110.198 48.6702 110.745 49.0606C111.294 49.4354 111.992 49.6228 112.838 49.6228Z" fill="black"/>
<path d="M122.82 54.1444C123.464 54.1444 123.934 54.0194 124.231 53.7695C124.544 53.5352 124.827 53.0745 125.078 52.3873L125.101 52.2936H124.113L119.624 40.5798H122.962L126.183 49.2949L129.309 40.5798H132.53L127.898 53.2307C127.46 54.5582 126.872 55.511 126.135 56.0889C125.399 56.6824 124.341 56.9791 122.962 56.9791C122.68 56.9791 122.382 56.9557 122.069 56.9088C121.771 56.8775 121.45 56.8229 121.104 56.7448V53.9101C121.45 53.9882 121.755 54.0428 122.022 54.0741C122.304 54.1209 122.569 54.1444 122.82 54.1444Z" fill="black"/>
<path d="M138.84 50.0445C139.405 50.0445 139.835 49.9587 140.133 49.7868C140.431 49.5994 140.58 49.3339 140.58 48.9903C140.58 48.6779 140.438 48.4436 140.156 48.2875C139.875 48.1156 139.396 47.9829 138.722 47.8892L137.57 47.7252C136.254 47.5222 135.259 47.1239 134.585 46.5304C133.926 45.9213 133.598 45.1169 133.598 44.1174C133.598 42.9616 134.028 42.0479 134.891 41.3764C135.752 40.6891 136.912 40.3456 138.37 40.3456C139.875 40.3456 141.105 40.7048 142.061 41.4232C143.017 42.126 143.494 43.0319 143.494 44.1408H140.485C140.485 43.7347 140.298 43.4146 139.921 43.1803C139.545 42.9304 139.028 42.8054 138.37 42.8054C137.837 42.8054 137.429 42.8992 137.147 43.0866C136.865 43.2584 136.724 43.5083 136.724 43.8363C136.724 44.1487 136.865 44.3907 137.147 44.5625C137.445 44.7343 137.915 44.8749 138.558 44.9842L139.71 45.1482C141.089 45.3512 142.108 45.7339 142.766 46.2961C143.424 46.8584 143.753 47.6237 143.753 48.592C143.753 49.779 143.298 50.7318 142.389 51.4502C141.496 52.1686 140.313 52.5279 138.84 52.5279C137.273 52.5279 135.98 52.1374 134.961 51.3565C133.942 50.5755 133.433 49.5916 133.433 48.4046H136.536C136.536 48.8888 136.747 49.287 137.171 49.5994C137.594 49.8961 138.15 50.0445 138.84 50.0445Z" fill="black"/>
<path d="M145.794 47.9361V37.7685H149.013V40.5798H152.399V43.2506H149.013V47.6784C149.013 48.2719 149.146 48.7013 149.413 48.9669C149.695 49.2167 150.15 49.3417 150.776 49.3417H152.634V52.2936H150.588C148.911 52.2936 147.69 51.95 146.922 51.2628C146.169 50.5755 145.794 49.4667 145.794 47.9361Z" fill="black"/>
<path d="M162.715 48.3578H165.911C165.708 49.6073 165.089 50.6146 164.055 51.3799C163.036 52.1452 161.782 52.5279 160.294 52.5279C158.475 52.5279 156.987 51.9656 155.827 50.8411C154.683 49.701 154.111 48.2328 154.111 46.4367C154.111 44.6249 154.668 43.1569 155.78 42.0323C156.908 40.9078 158.366 40.3456 160.152 40.3456C161.908 40.3456 163.318 40.9 164.383 42.0089C165.465 43.1178 166.006 44.5781 166.006 46.3899C166.006 46.4991 165.997 46.632 165.983 46.7881C165.983 46.9287 165.974 47.1083 165.958 47.327H157.285C157.41 48.1391 157.731 48.7639 158.248 49.2012C158.781 49.6228 159.462 49.8337 160.294 49.8337C160.92 49.8337 161.445 49.7087 161.869 49.4589C162.292 49.1933 162.574 48.8263 162.715 48.3578ZM160.059 42.9694C159.322 42.9694 158.726 43.1569 158.271 43.5317C157.817 43.8909 157.504 44.4375 157.331 45.1716H162.832C162.722 44.4844 162.417 43.9455 161.915 43.5551C161.413 43.1647 160.795 42.9694 160.059 42.9694Z" fill="black"/>
<path d="M173.744 43.1803C173.055 43.1803 172.506 43.3911 172.099 43.8128C171.707 44.2189 171.511 44.7889 171.511 45.523V52.2936H168.29V40.5798H170.571L171.134 41.7043C171.527 41.2671 172.004 40.9312 172.569 40.697C173.132 40.4627 173.752 40.3456 174.425 40.3456C175.241 40.3456 175.977 40.494 176.635 40.7907C177.293 41.0874 177.834 41.5169 178.258 42.0792C178.649 41.5325 179.174 41.1108 179.832 40.8141C180.507 40.5017 181.251 40.3456 182.065 40.3456C183.491 40.3456 184.644 40.7751 185.521 41.6341C186.399 42.4775 186.838 43.6098 186.838 45.0311V52.2936H183.617V45.523C183.617 44.8046 183.414 44.2345 183.006 43.8128C182.614 43.3911 182.081 43.1803 181.407 43.1803C180.718 43.1803 180.17 43.3911 179.762 43.8128C179.37 44.2189 179.174 44.7889 179.174 45.523V52.2936H175.953V45.523C175.953 44.8046 175.75 44.2345 175.343 43.8128C174.951 43.3911 174.418 43.1803 173.744 43.1803Z" fill="black"/>
<path d="M15.898 24.5941C15.9071 23.7274 16.0176 22.7481 16.2296 21.6562C16.8201 18.6107 17.9007 15.8125 19.4713 13.2621C24.5275 5.04987 33.6566 0.376917 43.3073 1.12367C50.0699 1.64661 56.2951 4.75599 60.7248 9.88599C63.8291 13.481 65.7831 17.6718 66.587 22.4584C66.6846 23.042 66.7171 23.6099 66.8473 24.1946C66.8556 24.2322 66.8645 24.2322 66.8735 24.1946C66.9113 24.0325 66.8462 23.9028 66.8462 23.7417C66.8336 18.126 66.8315 12.3559 66.8399 6.43147C66.8399 6.37395 66.8042 6.284 66.8126 6.23485C66.8141 6.22568 66.8182 6.21713 66.8244 6.21023C66.8307 6.20332 66.8388 6.19836 66.8477 6.19592C66.8567 6.19349 66.8661 6.1937 66.8751 6.19653C66.8839 6.19935 66.8917 6.20466 66.8976 6.21184C67.2454 6.62878 67.5703 7.04574 67.8726 7.4627C71.4274 12.37 73.4637 17.8834 73.9813 24.0032C73.9821 24.0136 73.9876 24.0189 73.9981 24.0189C74.0107 24.0189 74.0174 24.0126 74.0181 24C74.0506 23.5901 74.0128 23.1895 74.0128 22.7826C74.0136 15.6734 74.0136 8.59293 74.0128 1.54097C74.0128 1.42104 74.0496 1.40849 74.123 1.50332C75.551 3.33847 76.8043 5.2702 77.8832 7.2985C80.8076 12.7942 82.3878 18.6222 82.6235 24.7824C82.9083 32.2282 81.2869 39.222 77.7593 45.7636C76.7358 47.6614 75.5251 49.512 74.1272 51.3151C74.0496 51.4155 74.0107 51.4025 74.0107 51.2764L74.017 28.8822C74.017 28.8619 74.0094 28.8587 73.9939 28.8728C73.9821 28.8825 73.9755 28.895 73.974 28.9104C73.8013 30.9094 73.4591 32.862 72.9476 34.7683C71.7933 39.0738 69.7966 43.0021 66.9574 46.5532C66.8771 46.6536 66.8368 46.6396 66.8368 46.5114C66.8326 40.7256 66.8354 34.9388 66.8452 29.151C66.8452 28.9868 66.9155 28.8351 66.8829 28.674C66.8808 28.6636 66.8742 28.6587 66.863 28.6594H66.8619C66.8487 28.66 66.842 28.6674 66.842 28.6814C66.8483 28.8382 66.7727 28.9606 66.7539 29.1185C66.2438 33.5097 64.7404 37.4712 62.2434 41.0028C58.5231 46.2635 52.9988 49.8561 46.6697 51.2377C46.0071 51.382 45.3198 51.4974 44.6075 51.5839C39.9613 52.1458 35.5267 51.5371 31.3038 49.7578C23.7373 46.57 17.9412 39.7007 16.3188 31.5816C16.2069 31.0231 16.1072 30.4642 16.0197 29.905C15.9399 29.3953 15.9019 28.8341 15.9053 28.2212C15.9061 28.2086 15.8998 28.2019 15.8864 28.2013H15.8854C15.8764 28.2013 15.8714 28.2061 15.8707 28.216C15.857 28.7849 15.8193 29.3424 15.8193 29.9144C15.8172 35.2254 15.8182 40.6095 15.8224 46.0669C15.8224 46.2495 15.8148 46.4263 15.7993 46.5971C15.7959 46.6438 15.7791 46.6487 15.749 46.6118C12.253 42.2644 10.026 37.3331 9.06826 31.8179C8.94722 31.122 8.84927 30.3415 8.77441 29.4762C8.74293 29.1133 8.6191 28.7734 8.66317 28.4084C8.66527 28.393 8.65862 28.385 8.64323 28.3843C8.63274 28.3836 8.62749 28.3881 8.62749 28.3979C8.61629 28.5862 8.62014 28.7685 8.63903 28.9449C8.65792 29.1164 8.66701 29.2904 8.66632 29.4668C8.65232 36.5529 8.65092 43.851 8.66212 51.3611C8.66204 51.3674 8.66008 51.3734 8.65648 51.3786C8.65288 51.3838 8.64782 51.3877 8.64194 51.39C8.63606 51.3922 8.62965 51.3927 8.62352 51.3912C8.6174 51.3899 8.61183 51.3866 8.60755 51.382C8.48162 51.2411 8.35918 51.0923 8.24025 50.9354C5.67681 47.5349 3.69967 43.8701 2.30881 39.9412C-0.827968 31.0754 -0.758706 21.285 2.45678 12.4787C3.84694 8.67173 5.81499 5.08857 8.36093 1.72923C8.44909 1.61348 8.53304 1.52668 8.6128 1.46881C8.64568 1.4451 8.66212 1.45347 8.66212 1.49391C8.65092 8.42525 8.65197 15.2122 8.66527 21.855C8.66597 22.3325 8.67017 22.8447 8.67786 23.3913C8.68067 23.5509 8.67016 23.7166 8.64638 23.8881C8.6191 24.0812 8.61175 24.272 8.62434 24.4602C8.62505 24.4728 8.63169 24.4783 8.64428 24.477H8.64533C8.66142 24.4755 8.66842 24.4668 8.66632 24.4508C8.64183 24.2674 8.65197 24.0934 8.69675 23.9289C8.70795 23.885 8.70725 23.8414 8.69466 23.7982C8.68277 23.757 8.68661 23.7166 8.7062 23.6769C8.73349 23.6218 8.74993 23.5611 8.75552 23.4949C9.21518 18.1034 11.0831 12.9347 14.0898 8.46255C14.5362 7.79807 15.0885 7.04609 15.7469 6.20661C15.7714 6.17592 15.7857 6.18011 15.7899 6.21916C15.8102 6.39346 15.8203 6.57649 15.8203 6.76824C15.8189 12.121 15.8189 17.6119 15.8203 23.2407C15.8203 23.6695 15.8434 24.1206 15.8896 24.5941C15.8945 24.6457 15.8973 24.6457 15.898 24.5941ZM53.8846 29.5955L53.8709 31.1015C53.8709 31.1053 53.8718 31.1089 53.8731 31.1124C53.8746 31.1158 53.8767 31.119 53.8794 31.1215C53.882 31.1241 53.8852 31.126 53.8887 31.1272C53.892 31.1285 53.8957 31.129 53.8993 31.1287C53.9538 31.1252 53.999 31.1026 54.0346 31.0607C55.338 29.5536 55.6823 27.6177 55.4881 25.6661C55.4853 25.6369 55.4715 25.6098 55.4497 25.5902C55.4278 25.5705 55.3992 25.5595 55.3695 25.5594L47.1639 25.5573C47.1332 25.5573 47.1178 25.5723 47.1178 25.6023L47.122 27.8917C47.1223 27.9137 47.1312 27.9347 47.1469 27.9502C47.1627 27.9657 47.1839 27.9744 47.2059 27.9744L51.3313 27.9733C51.4125 27.9733 51.445 28.0131 51.4289 28.0925C51.1777 29.3482 50.4239 30.1347 49.1673 30.452C47.6698 30.8296 46.0736 30.565 44.9874 29.4009C44.0933 28.4419 43.8656 27.0927 43.9674 25.7571C44.0964 24.0816 45.1028 22.6373 46.7316 22.2325C48.4936 21.7933 50.4004 22.3695 51.1571 24.1276C51.1649 24.1451 51.1776 24.1599 51.1937 24.1703C51.2098 24.1807 51.2283 24.1862 51.2473 24.1862L55.1303 24.1883C55.1416 24.1884 55.1528 24.1859 55.1631 24.1811C55.1734 24.1763 55.1824 24.1692 55.1896 24.1604C55.1969 24.1516 55.2021 24.1412 55.2049 24.1302C55.2077 24.1191 55.208 24.1075 55.2058 24.0963C55.0281 23.1738 54.6427 22.3667 54.0493 21.6751C53.9024 21.5049 53.8423 21.5314 53.8688 21.7546C53.8801 21.8472 53.8839 21.9348 53.8804 22.0171C53.8629 22.4493 53.872 22.8879 53.9076 23.3328C53.908 23.3377 53.9069 23.3427 53.9048 23.3471C53.9026 23.3516 53.8993 23.3555 53.8953 23.3582C53.8912 23.3609 53.8866 23.3626 53.8817 23.3629C53.8769 23.3632 53.8721 23.3622 53.8678 23.36C53.837 23.3446 53.8157 23.3213 53.8038 23.2899C53.0093 21.2369 51.1424 19.8594 49.0078 19.5593C46.8921 19.2612 44.9223 19.7214 43.2957 21.1731C42.6416 21.7573 42.104 22.5006 41.6827 23.4029C41.6365 23.5004 41.6135 23.4952 41.6135 23.3872V21.9397C41.6135 21.773 41.5646 21.757 41.4665 21.8916C40.7138 22.9255 40.2544 23.9509 40.0886 24.9675C39.7318 27.1544 40.1862 29.0851 41.5494 30.8442C41.5535 30.8495 41.5589 30.8536 41.5651 30.8563C41.5713 30.8589 41.578 30.8599 41.5846 30.8592C41.5913 30.8585 41.5976 30.8559 41.6031 30.8521C41.6084 30.8482 41.6128 30.843 41.6156 30.8369C41.6226 30.8215 41.6261 30.8055 41.6261 30.7888C41.6219 30.2589 41.6139 29.7544 41.6019 29.2754C41.5985 29.1311 41.6275 29.1241 41.689 29.2545C42.7783 31.5554 44.8069 33.028 47.3728 33.1723C48.6069 33.242 49.7348 33.0527 50.7562 32.6044C52.174 31.9821 53.1038 30.9561 53.8027 29.5756C53.858 29.4661 53.8853 29.4727 53.8846 29.5955ZM37.6927 25.8533C37.7515 25.6442 37.784 25.6479 37.7903 25.8648C37.8023 26.2553 37.8079 26.6566 37.8071 27.0686C37.8065 27.2632 37.8687 27.2862 37.9939 27.1377C38.6054 26.4104 38.9504 25.5838 39.0287 24.6579C39.1378 23.3642 38.8314 22.0746 37.9656 21.1364C37.8572 21.0193 37.8029 21.0402 37.8029 21.1992C37.8044 21.6126 37.8019 21.9996 37.7956 22.3601C37.7908 22.6536 37.7484 22.6592 37.6686 22.3769C37.6308 22.2436 37.5784 22.1147 37.5112 21.9899C36.6402 20.3824 34.8698 19.6984 33.0532 19.6806C31.4336 19.6639 29.4855 19.66 27.2088 19.6691C27.1905 19.6691 27.1728 19.6763 27.1599 19.6893C27.1469 19.7022 27.1396 19.7198 27.1396 19.7381V32.8826C27.1396 32.9156 27.1527 32.9473 27.1759 32.9706C27.1991 32.9939 27.2306 33.0071 27.2634 33.0071L29.9416 33.0029C30.015 33.0029 30.0518 32.9663 30.0518 32.8931L30.0507 28.6971C30.0507 28.6809 30.0571 28.6655 30.0686 28.6542C30.08 28.6428 30.0955 28.6364 30.1116 28.6364L32.6177 28.6301C32.6573 28.6301 32.6963 28.6409 32.7303 28.6614C32.7643 28.6818 32.7922 28.7112 32.8108 28.7462L35.0482 32.9485C35.0573 32.9656 35.071 32.9798 35.0878 32.9897C35.1047 32.9997 35.1239 33.005 35.1437 33.005L39.3162 33.0029C39.3319 33.003 39.3472 32.9989 39.3607 32.9911C39.3742 32.9833 39.3854 32.9721 39.3929 32.9585C39.4006 32.9449 39.4044 32.9295 39.404 32.9139C39.4037 32.8984 39.399 32.8833 39.3907 32.8701C38.85 31.9916 38.3549 31.1392 37.9058 30.3129C37.8611 30.2293 37.8331 30.2345 37.8218 30.3286C37.7652 30.8275 37.8082 31.3494 37.7882 31.8012C37.7827 31.9372 37.7498 31.9441 37.6896 31.8221C37.5959 31.631 37.4965 31.447 37.3916 31.2699C36.7676 30.2107 36.162 29.175 35.575 28.1626C35.5484 28.1166 35.5597 28.0834 35.6086 28.0633C36.4785 27.6982 37.4188 26.8249 37.6927 25.8533Z" fill="black"/>
<path d="M30.0434 22.313C30.0434 22.293 30.0514 22.2737 30.0655 22.2594C30.0796 22.2451 30.0989 22.2369 30.1189 22.2367L33.1329 22.2262C33.3823 22.2253 33.6294 22.2704 33.8601 22.3589C34.0908 22.4473 34.3005 22.5774 34.4774 22.7418C34.6542 22.9062 34.7947 23.1014 34.8909 23.3166C34.9871 23.5318 35.0369 23.7626 35.0377 23.9959L35.0398 24.3891C35.0413 24.86 34.8429 25.3123 34.4881 25.6466C34.1333 25.9807 33.651 26.1695 33.1476 26.1713L30.1336 26.1817C30.1236 26.1818 30.1135 26.18 30.104 26.1762C30.0946 26.1724 30.0861 26.1668 30.0788 26.1598C30.0716 26.1527 30.0658 26.1442 30.062 26.1348C30.0581 26.1255 30.056 26.1155 30.056 26.1054L30.0434 22.313Z" fill="black"/>
</mask>
<g mask="url(#mask0_17_19)">
<path d="M0 0H225V9H0V0Z" fill="#FA0118"/>
<path d="M0 9H225V19H0V9Z" fill="#FFA834"/>
<path d="M0 19H225V29H0V19Z" fill="#F1EC11"/>
<path d="M0 29H225V38H0V29Z" fill="#159023"/>
<path d="M0 38H225V48H0V38Z" fill="#0101F1"/>
<path d="M0 38H225V48H0V38Z" fill="#0101F1"/>
<path d="M0 38H225V48H0V38Z" fill="#0101F1"/>
<path d="M0 38H225V48H0V38Z" fill="#0101F1"/>
<path d="M0 38H225V48H0V38Z" fill="#0101F1"/>
<path d="M0 48H225V57H0V48Z" fill="#A4009A"/>
</g>
</svg>
